<?xml version="1.0" encoding="UTF-8" standalone="no"?>
<svg width="128px" height="128px" viewBox="0 0 128 128" version="1.1" xmlns="http://www.w3.org/2000/svg" xmlns:xlink="http://www.w3.org/1999/xlink">
    <!-- Generator: sketchtool 49.3 (51167) - http://www.bohemiancoding.com/sketch -->
    <title>5F865155-B404-4B52-A13F-47EAB7741DAD</title>
    <desc>Created with sketchtool.</desc>
    <defs>
        <filter x="-22.0%" y="-20.0%" width="144.0%" height="144.0%" filterUnits="objectBoundingBox" id="filter-1">
            <feOffset dx="0" dy="2" in="SourceAlpha" result="shadowOffsetOuter1"></feOffset>
            <feGaussianBlur stdDeviation="7" in="shadowOffsetOuter1" result="shadowBlurOuter1"></feGaussianBlur>
            <feColorMatrix values="0 0 0 0 0.138461817   0 0 0 0 0.0389538725   0 0 0 0 0.168314201  0 0 0 1 0" type="matrix" in="shadowBlurOuter1" result="shadowMatrixOuter1"></feColorMatrix>
            <feMerge>
                <feMergeNode in="shadowMatrixOuter1"></feMergeNode>
                <feMergeNode in="SourceGraphic"></feMergeNode>
            </feMerge>
        </filter>
        <polygon id="path-2" points="0 0 62 0 62 62 0 62"></polygon>
    </defs>
    <g id="Designs" stroke="none" stroke-width="1" fill="none" fill-rule="evenodd">
        <g id="Landing-Page" transform="translate(-856.000000, -3891.000000)">
            <g id="justiça-de-gênero" filter="url(#filter-1)" transform="translate(870.000000, 3903.000000)">
                <circle id="Oval-4-Copy-2" fill="#370F43" cx="50" cy="50" r="50"></circle>
                <g id="Page-1" transform="translate(23.000000, 23.000000)">
                    <mask id="mask-3" fill="white">
                        <use xlink:href="#path-2"></use>
                    </mask>
                    <g id="Clip-2"></g>
                    <path d="M26.1777778,14.5527778 C30.3090444,17.0940889 33.0666667,21.6407556 33.0666667,26.8666667 C33.0666667,32.0918889 30.3090444,36.6385556 26.1777778,39.1805556 C22.0465111,36.6385556 19.2888889,32.0918889 19.2888889,26.8666667 C19.2888889,21.6407556 22.0465111,17.0940889 26.1777778,14.5527778 Z M33.7555556,12.4 C41.7700889,12.4 48.2222222,18.8521333 48.2222222,26.8666667 C48.2222222,34.8805111 41.7700889,41.3333333 33.7555556,41.3333333 C32.6905333,41.3333333 31.6537556,41.2045111 30.6555556,40.9888889 C34.6497333,37.5733778 37.2,32.5155556 37.2,26.8666667 C37.2,21.2177778 34.6497333,16.1599556 30.6555556,12.7444444 C31.6537556,12.5281333 32.6905333,12.4 33.7555556,12.4 Z M18.6,12.4 C19.6650222,12.4 20.7018,12.5281333 21.7,12.7444444 C17.7065111,16.1599556 15.1555556,21.2177778 15.1555556,26.8666667 C15.1555556,32.5155556 17.7065111,37.5733778 21.7,40.9888889 C20.7018,41.2045111 19.6650222,41.3333333 18.6,41.3333333 C10.5861556,41.3333333 4.13333333,34.8805111 4.13333333,26.8666667 C4.13333333,18.8521333 10.5861556,12.4 18.6,12.4 Z M61.9786444,13.7777778 L57.8666667,13.7777778 C57.8666667,14.9192667 58.7918444,15.8444444 59.9333333,15.8444444 C61.0748222,15.8444444 62,14.9192667 62,13.7777778 L61.9786444,13.7777778 Z M48.2222222,0 C47.0807333,0 46.1555556,0.925177778 46.1555556,2.06666667 C46.1555556,3.20815556 47.0807333,4.13333333 48.2222222,4.13333333 L54.9388889,4.13333333 L46.0908,12.9814222 C42.8034222,10.0550222 38.4875333,8.26666667 33.7555556,8.26666667 C31.0592444,8.26666667 28.4938222,8.84188889 26.1777778,9.88142222 C23.8617333,8.84188889 21.2963111,8.26666667 18.6,8.26666667 C8.35208889,8.26666667 0,16.6187556 0,26.8666667 C0,36.4146667 7.25468889,44.3238 16.5333333,45.3592 L16.5333333,50.2888889 L11.0222222,50.2888889 C9.88073333,50.2888889 8.95555556,51.2140667 8.95555556,52.3555556 C8.95555556,53.4963556 9.88073333,54.4222222 11.0222222,54.4222222 L16.5333333,54.4222222 L16.5333333,59.9333333 C16.5333333,61.0741333 17.4585111,62 18.6,62 C19.7414889,62 20.6666667,61.0741333 20.6666667,59.9333333 L20.6666667,54.4222222 L26.1777778,54.4222222 C27.3192667,54.4222222 28.2444444,53.4963556 28.2444444,52.3555556 C28.2444444,51.2140667 27.3192667,50.2888889 26.1777778,50.2888889 L20.6666667,50.2888889 L20.6666667,45.3592 C22.6065778,45.1422 24.4631333,44.6207111 26.1777778,43.8519111 C28.4938222,44.8907556 31.0592444,45.4666667 33.7555556,45.4666667 C44.0034667,45.4666667 52.3555556,37.1145778 52.3555556,26.8666667 C52.3555556,22.8318444 51.0632,19.0904889 48.8684,16.0380222 L57.8666667,7.03975556 L57.8453111,13.7564222 L61.9786444,13.7777778 L62,2.06666667 C62,0.925177778 61.0748222,0 59.9333333,0 L48.2222222,0 Z" id="Fill-1" fill="#FF8C00" mask="url(#mask-3)"></path>
                </g>
            </g>
        </g>
    </g>
</svg>