<?xml version="1.0" encoding="UTF-8" standalone="no"?>
<svg width="128px" height="128px" viewBox="0 0 128 128" version="1.1" xmlns="http://www.w3.org/2000/svg" xmlns:xlink="http://www.w3.org/1999/xlink">
    <!-- Generator: sketchtool 49.3 (51167) - http://www.bohemiancoding.com/sketch -->
    <title>A42069C7-4EEA-4FCD-B3F1-92AE2CA0447E</title>
    <desc>Created with sketchtool.</desc>
    <defs>
        <filter x="-22.0%" y="-20.0%" width="144.0%" height="144.0%" filterUnits="objectBoundingBox" id="filter-1">
            <feOffset dx="0" dy="2" in="SourceAlpha" result="shadowOffsetOuter1"></feOffset>
            <feGaussianBlur stdDeviation="7" in="shadowOffsetOuter1" result="shadowBlurOuter1"></feGaussianBlur>
            <feColorMatrix values="0 0 0 0 0.138461817   0 0 0 0 0.0389538725   0 0 0 0 0.168314201  0 0 0 1 0" type="matrix" in="shadowBlurOuter1" result="shadowMatrixOuter1"></feColorMatrix>
            <feMerge>
                <feMergeNode in="shadowMatrixOuter1"></feMergeNode>
                <feMergeNode in="SourceGraphic"></feMergeNode>
            </feMerge>
        </filter>
    </defs>
    <g id="Designs" stroke="none" stroke-width="1" fill="none" fill-rule="evenodd">
        <g id="Landing-Page" transform="translate(-376.000000, -3891.000000)">
            <g id="meio-ambiente" filter="url(#filter-1)" transform="translate(390.000000, 3903.000000)">
                <circle id="Oval-4-Copy" fill="#370F43" cx="50" cy="50" r="50"></circle>
                <path d="M29.8373763,70.2740789 C30.3463085,70.783011 31.0248846,71.0374771 31.6186388,71.0374771 C32.212393,71.0374771 32.8909692,70.783011 33.3999013,70.2740789 L38.7436888,64.9302914 C39.422265,67.6445961 40.6945953,70.0196128 42.6455019,71.9705194 C45.4446287,74.7696461 49.2616197,76.2964426 53.5027209,76.2964426 C54.0116531,76.2964426 54.4357632,76.2964426 54.9446953,76.2116205 C64.444762,75.4482223 72.8421423,67.050842 73.6055405,57.5507753 C73.6055405,57.4659533 73.6055405,57.4659533 73.6055405,57.3811313 L74.1144727,28.7961093 C74.1144727,28.1175331 73.8600066,27.4389569 73.3510745,26.9300248 C73.3510745,26.9300248 73.2662524,26.8452027 73.2662524,26.8452027 C73.2662524,26.8452027 73.1814304,26.7603807 73.1814304,26.7603807 C72.4180322,25.9969825 71.3153459,25.8273385 70.3823036,26.1666266 L42.899968,26.6755587 C42.8151459,26.6755587 42.8151459,26.6755587 42.7303239,26.6755587 C38.0651126,27.0148468 33.6543674,29.2202194 30.0918424,32.6979224 C26.6141394,36.1756254 24.4087668,40.6711926 24.0694787,45.3364039 C23.6453686,50.0864372 25.172165,54.4971825 28.3954019,57.6355973 C30.1766644,59.4168598 32.466859,60.6891902 34.9266977,61.3677664 L29.7525543,66.5419098 C28.819512,67.6445961 28.819512,69.2562146 29.8373763,70.2740789 Z M46.2080269,31.7648801 L53.757187,31.5952361 L53.757187,42.7069212 L46.2080269,50.3409033 L46.2080269,31.7648801 Z M49.7705519,53.9882503 L57.404534,46.3542682 L68.8555072,46.8632003 L68.6858632,54.4123604 L49.7705519,53.9882503 Z M68.8555072,41.6890569 L62.2393894,41.4345908 L69.0251513,34.6488289 L68.8555072,41.6890569 Z M58.8465084,37.7024218 L58.8465084,31.5952361 L65.1233382,31.5104141 L58.8465084,37.7024218 Z M54.6054072,71.1222991 C51.2973483,71.3767652 48.3285775,70.3589009 46.2928489,68.3231723 C44.2571203,66.2874438 43.2392561,63.403495 43.4937221,60.1802581 L44.7660525,58.9079277 L68.176931,59.4168598 C66.6501346,65.6088676 60.967059,70.613367 54.6054072,71.1222991 Z M32.127571,54.1578944 C30.0070204,52.0373438 29.0739781,49.153395 29.3284442,45.8453361 C29.5829102,42.4524551 31.1945287,39.0595742 33.9088335,36.4300914 C36.029384,34.3095408 38.4892227,32.8675664 41.2035275,32.2738123 L41.2035275,55.4302247 L39.591909,57.0418432 C36.6231382,57.0418432 33.9936555,56.0239789 32.127571,54.1578944 Z" id="Shape" fill="#FC9218" fill-rule="nonzero"></path>
            </g>
        </g>
    </g>
</svg>