<?xml version="1.0" encoding="UTF-8" standalone="no"?>
<svg width="128px" height="128px" viewBox="0 0 128 128" version="1.1" xmlns="http://www.w3.org/2000/svg" xmlns:xlink="http://www.w3.org/1999/xlink">
    <!-- Generator: sketchtool 49.3 (51167) - http://www.bohemiancoding.com/sketch -->
    <title>98694834-3401-4EB1-9018-00B2E84E5329</title>
    <desc>Created with sketchtool.</desc>
    <defs>
        <filter x="-22.0%" y="-20.0%" width="144.0%" height="144.0%" filterUnits="objectBoundingBox" id="filter-1">
            <feOffset dx="0" dy="2" in="SourceAlpha" result="shadowOffsetOuter1"></feOffset>
            <feGaussianBlur stdDeviation="7" in="shadowOffsetOuter1" result="shadowBlurOuter1"></feGaussianBlur>
            <feColorMatrix values="0 0 0 0 0.138461817   0 0 0 0 0.0389538725   0 0 0 0 0.168314201  0 0 0 1 0" type="matrix" in="shadowBlurOuter1" result="shadowMatrixOuter1"></feColorMatrix>
            <feMerge>
                <feMergeNode in="shadowMatrixOuter1"></feMergeNode>
                <feMergeNode in="SourceGraphic"></feMergeNode>
            </feMerge>
        </filter>
    </defs>
    <g id="Designs" stroke="none" stroke-width="1" fill="none" fill-rule="evenodd">
        <g id="Landing-Page" transform="translate(-616.000000, -3891.000000)">
            <g id="soberania-alimentar" filter="url(#filter-1)" transform="translate(630.000000, 3903.000000)">
                <circle id="Oval-4" fill="#370F43" cx="50" cy="50" r="50"></circle>
                <g id="Group-5" transform="translate(23.000000, 18.000000)" fill="#FC9218" fill-rule="nonzero">
                    <path d="M0.6,38.3 C0.6,45.4 3.3,52 8.3,57 C13.4,62.1 20.2,64.7 27,64.7 C33.8,64.7 40.5,62.1 45.7,57 C50.7,52 53.4,45.4 53.4,38.3 C53.4,31.2 50.7,24.6 45.7,19.6 L27,0.9 L8.3,19.6 C3.3,24.6 0.6,31.2 0.6,38.3 Z M12.6,23.8 L27,9.4 L41.4,23.8 C45.3,27.7 47.4,32.8 47.4,38.2 C47.4,43.6 45.3,48.8 41.4,52.6 C33.4,60.6 20.5,60.6 12.5,52.6 C8.6,48.7 6.5,43.6 6.5,38.2 C6.5,32.8 8.7,27.7 12.6,23.8 Z" id="Shape"></path>
                    <path d="M43.6,37 L37.6,37 C37.6,44 31.9,49.2 25,49.2 L25,55.2 C35.3,55.2 43.6,47 43.6,37 Z" id="Shape"></path>
                </g>
            </g>
        </g>
    </g>
</svg>